<svg width="87" height="86" viewBox="0 0 87 86" fill="none" xmlns="http://www.w3.org/2000/svg">
<g clip-path="url(#clip0_30_189)">
<path d="M44.1493 38.7094C44.6871 38.8519 45.4362 39.0174 46.1578 39.2564C58.3807 43.3286 70.6036 47.4024 82.8265 51.4778C84.9178 52.1718 86.646 53.0956 86.8252 55.5776C87.0137 58.1561 85.4051 59.3603 83.3276 60.3669C78.8631 62.5118 74.4369 64.7425 70.049 67.059C69.1424 67.5558 68.3974 68.3023 67.9026 69.21C65.5355 73.7373 63.2788 78.3289 61.0083 82.9114C60.0522 84.8418 58.7423 86.1655 56.412 85.9862C54.1691 85.8208 53.1027 84.3638 52.4546 82.4104C48.315 69.9699 44.1692 57.5295 40.0173 45.089C38.8683 41.628 40.7573 38.6267 44.1493 38.7094ZM50.584 49.7634L57.4784 70.4464C59.2525 67.206 60.3189 63.8278 62.5342 61.617C64.7496 59.4062 68.1141 58.3997 71.2671 56.6853L50.584 49.7634Z" fill="#28A164"/>
<path d="M48.1525 10.7322C48.1525 12.8005 48.2214 14.8688 48.1525 16.9371C48.0468 19.5891 46.2542 21.4046 43.8734 21.4138C41.4925 21.423 39.6218 19.6121 39.5712 16.9693C39.4839 12.7591 39.4701 8.5398 39.5712 4.32965C39.6402 1.63626 41.4649 -0.0321681 43.9469 0.0183904C46.3185 0.0597565 48.0008 1.70061 48.1295 4.29748C48.2352 6.43932 48.1525 8.58576 48.1525 10.7322Z" fill="#28A164"/>
<path d="M24.2109 16.9417C25.6679 18.4079 27.1754 19.8327 28.5727 21.3541C30.3698 23.3121 30.379 25.863 28.6968 27.5452C27.0146 29.2274 24.4131 29.2642 22.5103 27.4257C19.4814 24.5025 16.4984 21.5195 13.6073 18.4584C11.7688 16.4959 11.8746 14.0277 13.6671 12.3133C15.3815 10.6724 17.7302 10.6495 19.6422 12.4006C21.2279 13.8392 22.6849 15.4249 24.1971 16.9463L24.2109 16.9417Z" fill="#28A164"/>
<path d="M69.6356 23.6935C68.1143 25.0954 66.6343 26.5432 65.0394 27.8807C63.0124 29.5997 60.4662 29.5124 58.8483 27.7612C57.2304 26.01 57.2994 23.4132 59.2068 21.5839C62.2495 18.6745 65.3474 15.811 68.5188 13.0395C70.5503 11.2653 73.0138 11.4814 74.6547 13.3428C76.2266 15.117 76.1623 17.4794 74.3376 19.3179C72.8346 20.8439 71.1937 22.2365 69.6126 23.6843L69.6356 23.6935Z" fill="#28A164"/>
<path d="M24.2339 69.1043C22.7125 70.4831 21.2325 71.9539 19.6376 73.2914C17.6107 75.0104 15.0414 74.9185 13.4419 73.1719C11.8424 71.4254 11.8976 68.8239 13.805 66.9946C16.8478 64.0806 19.941 61.2172 23.117 58.4502C25.1485 56.6761 27.6075 56.8921 29.2529 58.749C30.8248 60.5277 30.7559 62.8856 28.9312 64.7241C27.4282 66.25 25.792 67.6427 24.2109 69.0951L24.2339 69.1043Z" fill="#28A164"/>
<path d="M11.4014 47.3136C9.41583 47.3136 7.43026 47.3641 5.4263 47.3136C2.55826 47.2216 0.830078 45.5532 0.830078 43.0069C0.830078 40.4606 2.57196 38.7692 5.4492 38.7186C9.48775 38.6482 13.5294 38.6482 17.5741 38.7186C20.3594 38.76 22.2346 40.5571 22.23 43.0207C22.2254 45.4843 20.3456 47.2354 17.5649 47.3182C15.5196 47.3595 13.4605 47.3136 11.4014 47.3136Z" fill="#28A164"/>
</g>
<defs>
<clipPath id="clip0_30_189">
<rect width="86" height="86" fill="white" transform="translate(0.84375)"/>
</clipPath>
</defs>
</svg>
