<svg width="86" height="83" viewBox="0 0 86 83" fill="none" xmlns="http://www.w3.org/2000/svg">
<g clip-path="url(#clip0_30_183)">
<path d="M85.3966 83C83.4197 82.5408 81.4325 82.1202 79.4679 81.6123C75.7428 80.6492 72.0611 79.554 68.637 77.7518C68.3369 77.5993 67.9937 77.5499 67.6619 77.6116C63.6322 78.6061 59.4503 78.8555 55.3283 78.3471C49.8304 77.6482 44.854 75.7057 40.628 72.0485C37.0988 69.0007 34.6498 65.315 33.6871 60.7718C32.4317 54.7942 33.8396 49.3936 37.7544 44.6839C42.3988 39.0923 48.6017 36.1888 55.7302 35.3781C65.0892 34.3114 73.4588 36.711 80.2245 43.4201C86.8933 50.0316 87.7364 60.5565 82.1663 68.0742C81.0614 69.5615 81.2923 70.9675 81.7273 72.341C82.7023 75.4396 83.9062 78.469 85.0256 81.5229C85.174 81.9292 85.374 82.3153 85.5513 82.7094L85.3966 83ZM49.3212 60.7007C51.261 60.7007 52.9679 59.0306 52.9328 57.1613C52.8957 55.2514 51.1847 53.5975 49.2861 53.6361C47.3875 53.6747 45.7507 55.294 45.7219 57.145C45.693 59.0306 47.3813 60.6987 49.3212 60.7007ZM70.7335 60.7007C72.6589 60.7007 74.4586 59.0428 74.3369 57.1775C74.2071 55.1965 73.0259 53.7885 70.7191 53.6259C68.8494 53.4938 67.1569 55.2636 67.1528 57.1816C67.163 58.1136 67.5439 59.0043 68.2135 59.6624C68.8831 60.3205 69.7879 60.6933 70.7335 60.7007ZM63.6565 57.206C63.6604 56.268 63.2883 55.3665 62.6212 54.6975C61.9541 54.0286 61.0459 53.6463 60.0943 53.634C58.2514 53.5995 56.4827 55.3387 56.4703 57.2019C56.4579 59.0102 58.1813 60.7007 60.0346 60.7007C60.9834 60.7051 61.8957 60.3407 62.5737 59.6865C63.2518 59.0323 63.6408 58.141 63.6565 57.206Z" fill="#28A164"/>
<path d="M1.27052 69.5169C2.82898 65.6056 4.4967 61.8447 5.80572 57.966C6.60557 55.6009 6.86942 53.0571 7.3621 50.5904C7.50847 49.8488 7.2446 49.2413 6.77047 48.646C3.57353 44.6661 1.58328 39.8764 1.02932 34.8296C0.410882 29.3924 1.26639 24.1402 3.84115 19.2272C7.593 12.0671 13.4867 7.17849 20.7946 3.84427C25.735 1.60282 31.068 0.322374 36.5008 0.0732082C46.938 -0.455066 56.4969 2.09081 64.887 8.30209C70.6797 12.5913 74.8212 18.1178 76.4539 25.1987C76.9878 27.5089 77.1506 29.9024 77.5073 32.4219C75.3448 31.5401 73.541 30.6318 71.6321 30.0812C70.1891 29.6627 69.583 29.0429 69.2759 27.5231C68.1483 21.9499 64.8932 17.6404 60.4116 14.2066C55.1714 10.1978 49.1437 8.07046 42.5924 7.5239C33.2993 6.74571 24.7093 8.75925 17.2839 14.55C12.3797 18.3759 9.14527 23.301 8.45262 29.5164C7.83419 35.1689 9.42563 40.2627 13.2166 44.6209C13.9299 45.4337 14.7112 46.2078 15.3956 47.0591C15.6306 47.3549 15.7373 47.7304 15.6925 48.1035C14.8143 51.7608 13.8866 55.3957 12.9755 59.0408C12.9602 59.1996 12.9602 59.3595 12.9755 59.5183C17.6117 58.2281 21.8665 56.2389 26.2451 53.8678V61.7126C18.5187 65.6869 9.91832 67.6984 1.27052 69.5169Z" fill="#28A164"/>
</g>
<defs>
<clipPath id="clip0_30_183">
<rect width="85" height="83" fill="white" transform="translate(0.84375)"/>
</clipPath>
</defs>
</svg>
