<svg width="89" height="79" viewBox="0 0 89 79" fill="none" xmlns="http://www.w3.org/2000/svg">
<g clip-path="url(#clip0_30_177)">
<path d="M76.9593 68.6919C76.8314 69.9115 76.8332 71.0463 76.5774 72.1174C75.6181 76.1101 72.0422 78.8338 67.6747 78.9911C67.5313 78.9911 67.3878 78.9911 67.2426 78.9911C48.0327 78.9911 28.8217 78.9911 9.60949 78.9911C5.55654 78.9911 2.50083 76.8136 1.26853 73.0011C0.991931 72.1041 0.854306 71.1684 0.860645 70.2279C0.836448 55.5318 0.832414 40.8338 0.848545 26.1342C0.848545 21.7596 2.96921 18.3713 6.62638 16.9803C7.44215 16.671 8.35472 16.5756 9.2379 16.5066C10.2334 16.4271 11.241 16.4889 12.3316 16.4889C12.584 14.4068 12.7827 12.3937 13.0834 10.3964C13.341 8.69075 13.4568 6.89498 14.0876 5.33074C15.6431 1.48114 19.4351 -0.456048 23.5053 0.0865732C27.8694 0.666312 32.2472 1.12941 36.6199 1.64375C41.9916 2.27533 47.3633 2.90514 52.735 3.53319C58.0225 4.14828 63.3106 4.75748 68.5994 5.36079C72.7733 5.83978 76.9507 6.28696 81.1194 6.80837C83.4044 7.10097 85.4866 8.29638 86.9207 10.1389C88.3548 11.9814 89.0269 14.3247 88.7933 16.6675C88.152 22.8979 87.4261 29.1177 86.7452 35.3446C86.3148 39.2614 85.9052 43.1817 85.4748 47.0984C84.9563 51.8053 84.545 56.5263 83.8761 61.2101C83.2971 65.2648 80.8758 67.7764 76.9593 68.6919ZM5.73455 56.0508C6.19429 55.7256 6.49675 55.5206 6.79057 55.3032C10.9386 52.2242 15.0624 49.1169 19.2208 46.068C23.1959 43.1428 28.1113 43.4733 31.7512 46.7997C35.4637 50.1916 39.2194 53.5374 42.9526 56.9063C43.9493 57.819 45.2538 58.3 46.5907 58.2478C48.1307 58.2248 49.2938 57.334 50.5279 56.6005C57.4147 52.5105 64.2981 48.4129 71.178 44.3076C71.5928 44.0584 71.9765 43.8622 71.9731 43.2029C71.9402 37.4903 71.9731 31.776 71.942 26.0582C71.9468 25.4516 71.8335 24.8501 71.6087 24.2888C71.3838 23.7275 71.0519 23.2176 70.6323 22.7889C70.2128 22.3601 69.7139 22.0211 69.1649 21.7916C68.6158 21.5621 68.0276 21.4467 67.4345 21.4521C48.0771 21.4426 28.7249 21.4426 9.37789 21.4521C8.2562 21.4521 7.38512 21.9576 6.71279 22.8396C5.95405 23.8364 5.72591 24.9924 5.72591 26.2367C5.73859 35.8071 5.74147 45.3781 5.73455 54.9497V56.0508ZM71.9541 49.7462C71.6585 49.8911 71.5531 49.9335 71.4563 49.9918C64.8886 53.8803 58.3209 57.7735 51.7533 61.6715C47.664 64.1053 43.0908 63.7041 39.5114 60.5067C35.761 57.1573 32.0381 53.7743 28.2963 50.4125C26.3865 48.6963 24.0325 48.5584 22.0501 50.0466C16.8316 53.9669 11.6138 57.8878 6.39651 61.8093C6.17135 61.9577 5.98975 62.1658 5.87106 62.4113C5.75236 62.6569 5.701 62.9308 5.72245 63.2039C5.75529 65.5016 5.72246 67.7994 5.73801 70.0971C5.74665 72.5486 7.14833 73.9644 9.56282 73.9662C13.5956 73.9662 17.6284 73.9662 21.6612 73.9662C36.8982 73.9662 52.1352 73.9662 67.3722 73.9662C70.3398 73.9662 71.961 72.3418 71.961 69.3901C71.961 63.2039 71.961 57.0176 71.961 50.8314L71.9541 49.7462ZM17.2401 16.4889H18.4257C34.6721 16.4889 50.9185 16.4889 67.1648 16.4889C72.7819 16.4889 76.8435 20.6761 76.8435 26.4134C76.8435 38.37 76.8435 50.33 76.8435 62.2936V63.3541C77.979 63.0572 78.7948 61.9401 78.9348 60.6781C79.4672 55.8258 80.0087 50.974 80.5595 46.1228C81.1655 40.7484 81.7745 35.3729 82.3863 29.9962C82.8893 25.5774 83.3836 21.1728 83.9107 16.7647C84.2339 14.0657 82.834 12.102 80.2414 11.775C76.7295 11.3349 73.214 10.9249 69.6986 10.5113C64.8408 9.93861 59.983 9.37006 55.1253 8.80564C50.839 8.30367 46.5527 7.79993 42.2664 7.29443C38.4952 6.84725 34.7257 6.38241 30.9527 5.94053C28.1528 5.61354 25.3529 5.25121 22.5444 5.01083C20.1765 4.80933 18.6124 6.08016 18.1336 8.42209C18.0455 8.85159 18.0334 9.30584 17.985 9.73711L17.2401 16.4889Z" fill="#28A164"/>
<path d="M36.214 37.075C36.2086 35.8298 36.4455 34.5961 36.9109 33.4455C37.3764 32.2949 38.0609 31.2505 38.9249 30.3731C39.7888 29.4957 40.8147 28.8028 41.943 28.3348C43.0713 27.8668 44.2794 27.6331 45.4969 27.6471C50.5367 27.6578 54.7089 31.9722 54.6778 37.1439C54.6467 42.3156 50.4364 46.5594 45.388 46.5434C42.9443 46.5299 40.6057 45.5252 38.8857 43.75C37.1657 41.9747 36.2048 39.574 36.214 37.075ZM49.7486 37.1333C49.7641 34.6464 47.7955 32.5961 45.4001 32.6067C43.0634 32.6156 41.0689 34.6729 41.0637 37.0803C41.0712 38.2534 41.5277 39.3769 42.3353 40.2101C43.1429 41.0433 44.2375 41.5199 45.3845 41.5379C45.9544 41.5437 46.5198 41.4342 47.0481 41.2156C47.5764 40.9971 48.0572 40.6738 48.4629 40.2644C48.8685 39.855 49.1909 39.3676 49.4116 38.8302C49.6323 38.2928 49.7468 37.7161 49.7486 37.1333Z" fill="#28A164"/>
</g>
<defs>
<clipPath id="clip0_30_177">
<rect width="88" height="79" fill="white" transform="translate(0.84375)"/>
</clipPath>
</defs>
</svg>
